# xmcd
#
# Track frame offsets: 
#        183
#        9080
#        25878
#        35333
#        46870
#        54513
#        67033
#        73808
#        84288
#        94793
#        104553
#        111810
#        123100
#
# Disc length: 1763 seconds
#
# Revision: 2
# Processed by: cddbd v1.5.2PL0 Copyright (c) Steve Scherf et al.
# Submitted via: ExactAudioCopyFreeDBPlugin 1.0
#
DISCID=a006e10d
DTITLE=Barrence Whitfield - Barrence Whitfield and the Savages
DYEAR=1984
DGENRE=Rhythm and Blues
TTITLE0=Bip Bop Bip
TTITLE1=Walking with Barrence
TTITLE2=Mama Get the Hammer
TTITLE3=Fat Mama
TTITLE4=Cotton Pickin
TTITLE5=Go Ahead and Burn
TTITLE6=Savage Sax
TTITLE7=Georgia Slop
TTITLE8=Walk Out
TTITLE9=Miss Shake It
TTITLE10=Whiskey Wagon
TTITLE11=King Kong
TTITLE12=Ship Sailed at Six
EXTD=
EXTT0=
EXTT1=
EXTT2=
EXTT3=
EXTT4=
EXTT5=
EXTT6=
EXTT7=
EXTT8=
EXTT9=
EXTT10=
EXTT11=
EXTT12=
PLAYORDER=
